<?xml version="1.0" standalone="no"?><!DOCTYPE svg PUBLIC "-//W3C//DTD SVG 1.1//EN" "http://www.w3.org/Graphics/SVG/1.1/DTD/svg11.dtd" ><svg xmlns="http://www.w3.org/2000/svg"><metadata></metadata><defs><font id="fonteditor" horiz-adv-x="2366"><font-face font-family="Broadway" font-weight="400" font-stretch="normal" units-per-em="2048" panose-1="4 4 9 5 8 11 2 2 5 2" ascent="1869" descent="-450" x-height="2" bbox="-70 -392 2263 1481" underline-thickness="100" underline-position="-292" unicode-range="U+0021-007e" /><missing-glyph horiz-adv-x="512" d="M51 0 L51 1365 L461 1365 L461 0 L51 0 ZM410 51 L410 1314 L102 1314 L102 51 L410 51 Z" /><glyph glyph-name="exclam" unicode="!" d="M415 552 L352 552 Q333 654 309 703 Q285 752 164 936 Q89 1049 89 1152 Q89 1268 167 1332 Q256 1406 395 1406 Q538 1406 625 1323 Q698 1255 698 1151 Q698 1093 678.5 1042.5 Q659 992 609 917 Q513 775 477 708 Q441 641 415 552 ZM383 413 Q517 413 602.5 350 Q688 287 688 189 Q688 90 608.5 29.5 Q529 -31 400 -31 Q266 -31 181 30.5 Q96 92 96 189 Q96 290 178 352 Q257 412 383 413 Z" /><glyph glyph-name="quotedbl" unicode="&quot;" d="M130 816 L89 1365 L355 1365 L314 816 L130 816 ZM478 816 L437 1365 L703 1365 L662 816 L478 816 Z" /><glyph glyph-name="numbersign" unicode="#" d="M788 1365 L780 1295 L763 1152 L745 985 L743 964 L967 964 L970 992 L987 1170 L1003 1343 Q1009 1379 1041 1379 Q1077 1379 1077 1346 Q1077 1328 1073 1302 L1040 1012 L1037 988 L1035 964 L1203 964 Q1240 964 1253.5 957.5 Q1267 951 1267 932 Q1267 892 1196 892 L1027 892 L1024 861 L1020 829 L1006 692 L993 569 L987 509 L1155 509 Q1192 509 1205.5 502.5 Q1219 496 1219 477 Q1219 437 1148 437 L979 437 L959 225 L941 49 Q937 7 930.5 -3.5 Q924 -14 902 -14 Q865 -14 865 20 Q865 32 871 75 L909 414 L911 437 L688 437 L684 400 L644 0 L242 0 L251 76 L269 225 L289 414 L292 437 L129 437 Q58 437 58 477 Q58 496 71.5 502.5 Q85 509 122 509 L300 509 L303 542 L307 576 L340 892 L177 892 Q106 892 106 932 Q106 951 119.5 957.5 Q133 964 170 964 L347 964 L350 992 L367 1164 L380 1312 L386 1365 L788 1365 ZM695 509 L919 509 L940 702 L952 819 L956 855 L960 892 L735 892 L731 850 L726 808 L698 544 L695 509 Z" /><glyph glyph-name="dollar" unicode="$" d="M932 1265 L800 954 L821 931 Q1022 696 1067 636 Q1174 491 1174 344 Q1174 275 1140.5 207 Q1107 139 1049 94 Q896 -30 648 -30 Q513 -30 406 5 L371 -77 Q355 -115 348 -123.5 Q341 -132 324 -132 Q308 -132 297 -123.5 Q286 -115 286 -103 Q286 -94 298 -64 L307 -43 L335 27 Q137 117 137 208 Q137 225 148.5 237 Q160 249 177 249 Q198 249 223 214 Q285 128 367 94 L509 423 Q368 589 300 680 Q164 865 164 1004 Q164 1181 316 1292 Q452 1391 669 1391 Q783 1391 893 1357 L932 1451 Q944 1481 963 1481 Q979 1481 991.5 1471 Q1004 1461 1004 1448 Q1004 1432 961 1332 Q1117 1253 1117 1209 Q1117 1195 1104 1182 Q1091 1169 1078 1169 Q1058 1169 1002 1219 Q965 1252 932 1265 ZM870 1295 Q780 1321 716 1321 Q667 1321 642.5 1303.5 Q618 1286 618 1251 Q618 1195 753 1011 L870 1295 ZM558 366 L432 69 Q523 37 620 37 Q670 37 698 55 Q726 73 726 106 Q726 138 678.5 211.5 Q631 285 558 366 Z" /><glyph glyph-name="percent" unicode="%" d="M384 1384 Q504 1384 596 1304 Q714 1202 714 1010 Q714 841 614 738 Q519 639 382 639 Q236 639 138 753 Q48 859 48 1014 Q48 1180 143 1279 Q242 1382 384 1384 ZM367 1325 L367 697 L383 697 Q489 697 560 760 Q655 845 655 1016 Q655 1155 585 1238 Q511 1326 396 1326 Q387 1326 367 1325 ZM1083 1192 L558 138 L534 90 Q513 50 508 36 Q483 -24 455 -24 Q443 -24 433 -14.5 Q423 -5 423 7 Q423 17 452 74 L475 121 L500 170 L1055 1284 Q1094 1363 1103 1376 Q1112 1389 1128 1389 Q1139 1389 1148.5 1379.5 Q1158 1370 1158 1358 Q1158 1343 1083 1192 ZM1199 724 Q1339 724 1436 622 Q1534 520 1534 344 Q1534 164 1416 60 Q1325 -19 1206 -19 Q1134 -19 1066 12 Q998 43 953 96 Q868 196 868 355 Q868 521 970 624 Q1067 722 1199 724 ZM1187 666 L1187 41 Q1204 40 1213 40 Q1322 40 1391 113 Q1474 201 1474 356 Q1474 495 1403 577 Q1369 617 1316 642 Q1263 667 1213 667 Q1205 667 1187 666 Z" /><glyph glyph-name="ampersand" unicode="&amp;" d="M1154 455 Q1312 228 1529 0 L828 0 Q779 42 731 94 Q588 -23 413 -23 Q327 -23 249 8.5 Q171 40 124 93 Q48 181 48 308 Q48 423 113.5 513 Q179 603 321 682 Q254 809 229.5 880.5 Q205 952 205 1020 Q205 1177 318 1276 Q459 1399 702 1399 Q901 1399 1010 1306 Q1084 1244 1084 1143 Q1084 983 872 877 Q927 777 1113 508 Q1343 736 1464 736 Q1515 736 1515 691 Q1515 668 1502.5 661 Q1490 654 1440 649 Q1391 644 1328 601 Q1265 558 1154 455 ZM685 144 Q591 258 530 346 Q469 434 353 625 Q222 547 169 477 Q116 407 116 313 Q116 201 184 131 Q222 90 285 66 Q348 42 414 42 Q560 42 685 144 ZM834 932 Q1016 1016 1016 1141 Q1016 1232 932.5 1282 Q849 1332 697 1332 Q669 1332 648 1329 Q687 1176 834 932 Z" /><glyph glyph-name="quotesingle" unicode="&#39;" d="M130 816 L89 1365 L355 1365 L314 816 L130 816 Z" /><glyph glyph-name="parenleft" unicode="(" d="M563 1408 Q611 1408 611 1376 Q611 1363 604 1357 Q597 1351 562 1333 Q531 1318 507 1278.5 Q483 1239 476 1192 Q467 1137 460.5 954 Q454 771 454 597 Q454 -3 493 -98 Q521 -165 596 -194 Q610 -200 610 -219 Q610 -253 564 -253 Q480 -253 393.5 -209.5 Q307 -166 246 -93 Q143 30 117 209 Q102 313 102 624 Q102 798 110 888 Q118 978 140 1052 Q194 1233 340 1334 Q447 1407 563 1408 Z" /><glyph glyph-name="parenright" unicode=")" d="M184 1408 Q268 1408 354.5 1364.5 Q441 1321 502 1248 Q605 1125 631 946 Q646 842 646 531 Q646 357 638 267.5 Q630 178 608 103 Q555 -76 408 -179 Q301 -253 185 -253 Q137 -253 137 -221 Q137 -208 144 -202 Q151 -196 186 -178 Q217 -163 241 -123.5 Q265 -84 272 -37 Q281 18 287.5 201 Q294 384 294 557 Q294 1158 255 1253 Q227 1320 152 1349 Q138 1355 138 1374 Q138 1408 184 1408 Z" /><glyph glyph-name="asterisk" unicode="*" d="M332 1126 L318 1365 L496 1365 L482 1126 L705 1213 L760 1044 L529 983 L680 798 L537 694 L407 895 L278 694 L134 798 L286 983 L54 1044 L109 1213 L332 1126 Z" /><glyph glyph-name="plus" unicode="+" d="M890 645 L889 585 L891 454 L895 280 L434 280 L438 454 L440 587 L439 645 L349 644 L303 644 L249 645 L162 643 Q98 643 98 683 Q98 723 162 723 L251 721 L303 722 L439 722 L440 781 L438 912 L434 1086 L895 1086 L891 912 L889 779 L890 722 L1025 722 L1097 721 L1170 723 Q1226 723 1226 683 Q1226 643 1170 643 L1083 645 L1025 644 L980 644 L890 645 Z" /><glyph glyph-name="comma" unicode="," d="M638 97 Q589 33 517 1 Q445 -31 349 -31 Q245 -31 169 16 Q76 73 76 179 Q76 263 136 324 Q230 420 384 420 Q526 420 612 340 Q696 262 696 129 Q696 44 660 -28.5 Q624 -101 559 -144 Q464 -209 298 -209 Q224 -209 224 -179 Q224 -154 261 -154 L293 -156 L313 -156 Q418 -156 488 -125 Q578 -86 617 9 Q627 32 638 97 Z" /><glyph glyph-name="hyphen" unicode="-" d="M501 527 L357 526 L65 523 Q0 523 0 559 Q0 598 63 598 L134 596 L313 592 L573 598 L651 599 Q716 599 716 561 Q716 524 650 524 L578 526 L501 527 Z" /><glyph glyph-name="period" unicode="." d="M386 414 Q519 414 600 355 Q681 296 681 197 Q681 96 599 32.5 Q517 -31 386 -31 Q221 -31 139 61 Q91 115 91 187 Q91 289 171 350.5 Q251 412 386 414 Z" /><glyph glyph-name="slash" unicode="/" d="M847 1407 Q865 1408 878.5 1396.5 Q892 1385 892 1370 Q892 1359 869.5 1310.5 Q847 1262 713 980 L310 128 L200 -104 Q169 -169 162 -188 Q136 -252 101 -252 Q85 -252 73 -241 Q61 -230 61 -216 Q61 -201 85 -152 L124 -69 L439 593 L636 1010 L728 1203 Q804 1368 815 1387 Q826 1406 847 1407 Z" /><glyph glyph-name="zero" unicode="0" d="M681 1400 Q938 1400 1110 1191 Q1277 988 1277 672 Q1277 345 1080 138 Q914 -38 681 -38 Q521 -38 380 43 Q212 141 124 326 Q54 473 54 681 Q54 1016 246 1214 Q331 1302 444.5 1350.5 Q558 1399 681 1400 ZM661 1333 L656 683 L660 147 L661 29 Q848 27 984 139 Q1094 231 1152.5 369.5 Q1211 508 1211 680 Q1211 984 1054 1163 Q984 1243 891 1289 Q798 1335 707 1335 Q692 1335 661 1333 Z" /><glyph glyph-name="one" unicode="1" d="M1000 1387 L992 816 L1000 33 L1000 0 L423 0 L423 33 L431 828 L433 1122 L433 1164 L413 1158 L268 1113 Q246 1105 230 1105 Q200 1105 200 1139 Q200 1164 215.5 1173 Q231 1182 306 1201 L557 1266 L651 1291 L1000 1387 Z" /><glyph glyph-name="two" unicode="2" d="M738 64 L775 64 Q1047 65 1165 80 Q1204 87 1225 87 Q1257 87 1257 53 Q1257 15 1222 5 Q1206 0 1162 0 L27 0 Q205 214 326 374 Q447 534 579 730 Q724 946 782 1052 Q840 1158 840 1210 Q840 1271 794 1301 Q748 1331 655 1331 Q562 1331 464.5 1300 Q367 1269 300 1218 Q235 1169 196.5 1099.5 Q158 1030 158 962 Q158 916 170.5 883.5 Q183 851 226 789 Q235 775 235 761 Q235 746 223 734.5 Q211 723 197 723 Q157 723 122 795.5 Q87 868 87 949 Q87 1061 155 1162 Q232 1277 372.5 1338.5 Q513 1400 698 1400 Q899 1400 1043 1330 Q1149 1279 1208 1180 Q1256 1099 1256 998 Q1256 919 1227.5 838.5 Q1199 758 1132 644 Q1014 445 857 229 L738 64 Z" /><glyph glyph-name="three" unicode="3" d="M605 1332 Q363 1335 237 1194 Q194 1149 168 1149 Q153 1149 141.5 1163.5 Q130 1178 130 1197 Q130 1235 211 1289 Q376 1400 655 1400 Q864 1400 1002 1322 Q1078 1280 1119 1210.5 Q1160 1141 1160 1057 Q1160 916 1047 834 Q942 758 787 740 Q705 731 683 726 L848 703 Q1034 680 1139 584 Q1229 502 1229 375 Q1229 253 1143 154 Q977 -38 595 -38 Q304 -38 133 77 Q20 152 20 218 Q20 235 32.5 246.5 Q45 258 62 258 Q84 258 95 247 Q106 236 131 193 Q165 131 248 93 Q391 27 560 27 L605 28 L605 695 L454 695 Q404 695 391.5 700.5 Q379 706 379 728 Q379 752 391.5 758 Q404 764 455 764 L605 764 L605 1332 Z" /><glyph glyph-name="four" unicode="4" d="M1098 276 L1098 0 L535 0 L538 140 L539 252 L539 272 L512 272 L416 273 L193 270 L134 269 Q81 269 60.5 278.5 Q40 288 40 313 Q40 331 59.5 355.5 Q79 380 165 472 L1100 1473 L1099 1401 L1096 1064 L1094 655 L1097 345 Q1109 343 1117 343 Q1122 343 1135 347 L1243 351 L1272 353 Q1304 353 1304 315 Q1304 283 1278 279 Q1272 277 1204 276 L1098 276 ZM540 341 L540 774 L139 343 Q236 339 330 339 L540 341 Z" /><glyph glyph-name="five" unicode="5" d="M617 994 Q573 997 543 997 Q362 997 272 921 Q251 904 241 904 Q231 904 219.5 916 Q208 928 208 938 Q208 944 213 956 L225 989 L243 1039 Q272 1115 311 1238 L353 1363 L655 1359 L787 1358 L1012 1363 L1055 1364 Q1093 1364 1093 1340 Q1093 1313 1075.5 1294.5 Q1058 1276 1033 1276 Q1015 1276 986 1279 Q754 1291 416 1293 L396 1293 L309 1033 Q403 1063 546 1063 Q715 1063 859 1017 Q1060 953 1156 808 Q1236 687 1236 528 Q1236 372 1155 241 Q983 -39 611 -39 Q357 -39 189 98 Q37 222 37 433 Q37 568 104 666 Q137 713 167 713 Q183 713 196.5 698 Q210 683 210 666 Q210 654 203.5 645.5 Q197 637 160 597 Q103 537 103 425 Q103 302 173 208 Q239 117 377 64 Q480 25 573 25 Q583 25 617 28 L617 994 Z" /><glyph glyph-name="six" unicode="6" d="M665 1326 L661 620 L665 28 Q694 26 710 26 Q795 26 891.5 65.5 Q988 105 1058 169 Q1211 309 1211 512 Q1211 699 1081 788 Q1002 843 917 843 Q850 843 787 809 Q752 790 742 790 Q716 790 716 819 Q716 852 779.5 880 Q843 908 918 908 Q1059 908 1162 810 Q1280 697 1280 510 Q1280 264 1079 99 Q910 -38 687 -38 Q473 -38 311 85 Q57 276 57 654 Q57 952 231 1155 Q338 1280 490 1345 Q618 1400 752 1400 Q925 1400 1050 1306 Q1141 1238 1141 1181 Q1141 1164 1128 1151 Q1115 1138 1096 1138 Q1068 1138 1046 1180 Q1002 1261 936 1296 Q862 1336 748 1336 Q711 1336 665 1326 Z" /><glyph glyph-name="seven" unicode="7" d="M1276 1365 L1065 723 L831 0 L139 0 L173 71 L368 471 L765 1301 L527 1301 Q213 1299 122 1267 Q95 1257 78 1257 Q48 1257 48 1314 Q48 1368 91 1368 L241 1364 L340 1364 L802 1365 L1276 1365 Z" /><glyph glyph-name="eight" unicode="8" d="M1009 845 Q1098 786 1143 741 Q1258 627 1258 460 Q1258 310 1158 185 Q1064 67 882 6 Q749 -39 610 -39 Q352 -39 186 93 Q132 136 99.5 200 Q67 264 67 328 Q67 414 114 477.5 Q161 541 264 596 Q102 754 102 940 Q102 1143 267 1268 Q441 1400 700 1400 Q924 1400 1057 1303 Q1163 1225 1163 1089 Q1163 1012 1127 955.5 Q1091 899 1009 845 ZM936 878 Q1017 924 1051 971.5 Q1085 1019 1085 1086 Q1085 1202 988 1263 Q873 1334 691 1334 Q561 1334 482.5 1302.5 Q404 1271 404 1219 Q404 1153 575 1053 Q659 1005 836 925 L936 878 ZM312 547 Q246 513 216 486 Q141 421 141 329 Q141 271 171.5 216.5 Q202 162 254 127 Q401 26 607 26 Q735 26 823.5 60 Q912 94 912 143 Q912 196 822 252 Q766 287 546 400 Q454 446 312 547 Z" /><glyph glyph-name="nine" unicode="9" d="M660 35 L664 742 L660 1334 Q628 1336 615 1336 Q529 1336 433 1296.5 Q337 1257 267 1193 Q114 1052 114 849 Q114 663 245 573 Q324 518 408 518 Q475 518 537 552 Q572 571 582 571 Q608 571 608 542 Q608 509 544.5 481 Q481 453 406 453 Q267 453 164 551 Q45 665 45 852 Q45 1098 246 1262 Q415 1400 638 1400 Q851 1400 1014 1277 Q1268 1085 1268 707 Q1268 409 1094 206 Q987 81 834 17 Q706 -38 573 -38 Q399 -38 274 55 Q183 124 183 180 Q183 197 196.5 210 Q210 223 228 223 Q256 223 278 181 Q322 100 388 66 Q463 26 576 26 Q614 26 660 35 Z" /><glyph glyph-name="colon" unicode=":" d="M386 414 Q519 414 600 355 Q681 296 681 197 Q681 96 599 32.5 Q517 -31 386 -31 Q221 -31 139 61 Q91 115 91 187 Q91 289 171 350.5 Q251 412 386 414 ZM386 987 Q519 987 600 928 Q681 869 681 770 Q681 669 599 605.5 Q517 542 386 542 Q221 542 139 634 Q91 688 91 760 Q91 862 171 923.5 Q251 985 386 987 Z" /><glyph glyph-name="semicolon" unicode=";" d="M370 987 Q503 987 584 928 Q665 869 665 770 Q665 669 583 605.5 Q501 542 370 542 Q205 542 123 634 Q75 688 75 760 Q75 862 155 923.5 Q235 985 370 987 ZM638 97 Q589 33 516.5 1 Q444 -31 348 -31 Q244 -31 168 16 Q75 73 75 179 Q75 263 135 324 Q229 420 383 420 Q525 420 611 340 Q695 262 695 129 Q695 44 659 -28.5 Q623 -101 559 -144 Q463 -209 298 -209 Q224 -209 224 -179 Q224 -154 261 -154 L293 -156 L313 -156 Q418 -156 487 -125 Q577 -86 616 9 Q626 32 638 97 Z" /><glyph glyph-name="less" unicode="&lt;" d="M949 1329 L949 1162 L525 903 L949 609 L949 165 L74 772 L74 793 L949 1329 Z" /><glyph glyph-name="equal" unicode="=" d="M663 507 L285 502 L234 502 L159 501 Q96 501 96 540 Q96 581 159 581 L230 579 L657 575 L1095 579 L1166 581 Q1229 581 1229 540 Q1229 501 1166 501 L1091 502 L1040 502 L663 507 ZM663 780 L336 777 L285 776 L159 775 Q96 775 96 813 Q96 854 159 854 L230 852 L657 848 L1095 852 L1166 854 Q1229 854 1229 813 Q1229 775 1166 775 L1040 776 L989 777 L663 780 Z" /><glyph glyph-name="greater" unicode="&gt;" d="M75 165 L75 332 L499 591 L75 885 L75 1329 L950 722 L950 701 L75 165 Z" /><glyph glyph-name="question" unicode="?" d="M554 626 L554 535 L487 535 L490 1336 Q347 1328 244 1242 Q158 1171 158 1083 Q158 1065 162 1045 Q168 1017 168 1005 Q168 991 156 980.5 Q144 970 127 970 Q104 970 89 994 Q74 1018 74 1054 Q74 1126 120 1198.5 Q166 1271 243 1322 Q370 1406 569 1406 Q825 1406 961 1271 Q1064 1168 1064 1013 Q1064 879 981 781 Q914 701 821.5 667.5 Q729 634 554 626 ZM517 413 Q648 413 730.5 351 Q813 289 813 190 Q813 100 748 42 Q665 -31 521 -31 Q389 -31 305.5 29.5 Q222 90 222 186 Q222 284 297 345 Q378 411 517 413 Z" /><glyph glyph-name="at" unicode="@" d="M1102 411 Q1173 412 1230 452 Q1302 504 1342 591.5 Q1382 679 1382 785 Q1382 1031 1202 1189 Q1122 1259 1011.5 1298 Q901 1337 784 1337 Q520 1337 332 1158 Q135 969 135 687 Q135 417 312 228 Q501 27 820 27 Q946 27 1049 53.5 Q1152 80 1287 148 L1309 101 Q1066 -22 819 -22 Q481 -22 278 188 Q187 282 136 408 Q81 542 81 689 Q81 891 183 1058 Q284 1224 466 1312 Q620 1387 787 1387 Q961 1387 1117 1307 Q1279 1224 1364 1067 Q1435 936 1435 788 Q1435 607 1336.5 485 Q1238 363 1092 363 L774 363 L785 426 Q687 351 580 351 Q464 351 386 428 Q308 505 308 620 Q308 771 416 874 Q536 990 687 990 Q789 990 865 925 L871 975 L1192 975 L1145 692 L1102 411 ZM856 863 Q778 936 724 936 Q702 936 694 920.5 Q686 905 677 847 L622 499 L619 479 Q614 442 614 435 Q614 421 621 414 Q628 407 641 407 Q693 407 798 495 L856 863 Z" /><glyph glyph-name="A" unicode="a" d="M825 1447 L1625 0 L932 0 L837 183 L501 183 L205 184 L155 185 L89 63 Q60 8 48.5 -5.5 Q37 -19 20 -19 Q-14 -19 -14 11 Q-14 24 5.5 59.5 Q25 95 142 293 L747 1312 L825 1447 ZM514 792 L339 497 L199 254 L499 250 L800 253 L514 792 Z" /><glyph glyph-name="B" unicode="b" d="M1225 594 Q1297 542 1332.5 480.5 Q1368 419 1368 348 Q1368 233 1279 136 Q1170 16 951 6 Q830 0 611 0 L116 0 L117 47 L119 241 L122 623 L118 1039 L116 1365 L652 1365 Q853 1365 928.5 1358.5 Q1004 1352 1084 1327 Q1169 1300 1243 1248 Q1317 1196 1358 1134 Q1422 1037 1422 917 Q1422 809 1369 722 Q1316 635 1225 594 ZM1144 568 Q1101 559 1064 559 Q985 559 936.5 585 Q888 611 888 653 Q888 676 904 676 Q916 676 937 666 Q1006 631 1087 631 Q1234 631 1309 747 Q1357 820 1357 914 Q1357 1057 1246 1159 Q1167 1233 1057.5 1266 Q948 1299 783 1299 L728 1299 L722 699 L728 66 L818 65 Q967 65 1050 81.5 Q1133 98 1188 138 Q1302 222 1302 350 Q1302 415 1262.5 469.5 Q1223 524 1144 568 Z" /><glyph glyph-name="C" unicode="c" d="M701 1338 L696 629 L701 27 Q753 20 787 20 Q885 20 988 55 Q1091 90 1170 150 Q1221 189 1275.5 254 Q1330 319 1363 381 Q1382 417 1404 417 Q1437 417 1437 389 Q1437 359 1387.5 287.5 Q1338 216 1279 159 Q1151 36 978 -12 Q874 -41 778 -41 Q638 -41 497 19 Q271 114 153 320 Q55 491 55 683 Q55 879 157 1053 Q266 1238 465 1336 Q610 1406 778 1406 Q1066 1406 1276 1211 Q1376 1118 1376 1077 Q1376 1066 1366 1057 Q1356 1048 1344 1048 Q1324 1048 1296 1087 Q1210 1206 1069 1275.5 Q928 1345 771 1345 Q734 1345 701 1338 Z" /><glyph glyph-name="D" unicode="d" d="M116 1365 L642 1365 Q848 1365 952 1345 Q1209 1296 1367 1071 Q1491 894 1491 681 Q1491 464 1363 286 Q1209 71 961 19 Q897 6 847 3 Q797 0 627 0 L119 0 L122 660 L116 1365 ZM727 1301 L722 497 L728 64 Q862 65 920.5 74.5 Q979 84 1055 117 Q1234 194 1336 365 Q1425 512 1425 683 Q1425 869 1320 1025 Q1133 1302 766 1302 L727 1301 Z" /><glyph glyph-name="E" unicode="e" d="M724 927 Q722 881 722 815 L722 755 L729 65 L1068 69 L1308 72 Q1367 72 1367 36 Q1367 6 1337 2 Q1330 1 1254 0 L118 0 L119 52 L120 386 L124 744 L116 1365 L1176 1365 Q1247 1365 1257 1362 Q1280 1356 1280 1328 Q1280 1293 1236 1293 L1229 1293 L728 1300 L724 990 L833 989 L1183 995 L1260 996 Q1302 996 1315.5 989 Q1329 982 1329 961 Q1329 922 1263 922 L1184 924 L724 927 Z" /><glyph glyph-name="F" unicode="f" d="M724 927 L722 685 L728 46 L728 0 L117 0 L124 743 L116 1365 L1176 1365 Q1248 1365 1257 1362 Q1280 1356 1280 1328 Q1280 1293 1236 1293 L1229 1293 L728 1300 L724 990 L833 989 L1183 995 L1260 996 Q1302 996 1315.5 989 Q1329 982 1329 961 Q1329 922 1263 922 L1184 924 L724 927 Z" /><glyph glyph-name="G" unicode="g" d="M1506 689 Q1500 392 1316 193 Q1213 82 1071.5 20.5 Q930 -41 778 -41 Q646 -41 518 9 Q390 59 291 149 Q164 265 103 428 Q55 558 55 686 Q55 924 202 1118 Q303 1253 456 1329.5 Q609 1406 777 1406 Q1072 1406 1285 1203 Q1380 1112 1380 1074 Q1380 1061 1369.5 1052 Q1359 1043 1344 1043 Q1321 1043 1295 1078 Q1094 1345 779 1345 Q741 1345 702 1340 L697 630 L702 27 Q739 20 777 20 Q890 20 996 58 Q1264 153 1381 407 Q1431 514 1440 625 L918 625 Q849 627 835 632 Q821 637 821 658 Q821 690 869 690 L929 689 L1506 689 Z" /><glyph glyph-name="H" unicode="h" d="M1384 895 L1382 1176 L1380 1301 Q1380 1350 1388 1367 Q1396 1384 1421 1384 Q1459 1384 1459 1323 L1458 1255 L1456 1033 L1453 676 L1456 304 L1458 43 Q1458 7 1450.5 -6 Q1443 -19 1421 -19 Q1398 -19 1389.5 -5 Q1381 9 1381 46 L1382 131 L1385 633 L1385 819 L1347 820 L1152 824 L723 819 L724 543 L730 0 L117 0 L122 867 L120 1096 L119 1307 L117 1365 L730 1365 L729 1313 L724 895 Q826 888 1048 888 Q1252 888 1384 895 Z" /><glyph glyph-name="I" unicode="i" d="M728 1365 L728 1295 L723 747 L727 0 L116 0 L123 817 L116 1316 L117 1365 L728 1365 Z" /><glyph glyph-name="J" unicode="j" d="M1186 1365 L1183 1128 L1188 764 L1191 522 Q1191 273 1049 127 Q966 41 843 0 Q720 -41 548 -41 Q296 -41 160 60 Q100 105 60 171.5 Q20 238 20 294 Q20 337 62 337 Q102 337 111 276 Q129 148 271 78 Q385 22 516 22 Q535 22 578 25 L579 66 L581 339 L585 1068 L578 1365 L1186 1365 Z" /><glyph glyph-name="K" unicode="k" d="M961 1078 L1110 776 Q1239 516 1335 334 Q1431 152 1478 80 Q1507 34 1507 19 Q1507 -19 1455 -19 Q1432 -19 1421.5 -4.5 Q1411 10 1369 97 L1307 226 L1209 429 L1118 617 L1051 754 L906 1049 L723 939 L722 791 L722 692 L727 50 L728 0 L116 0 L122 854 L120 1097 L116 1310 L116 1365 L728 1365 L724 1205 L723 1011 L894 1113 Q1039 1199 1152 1275 Q1266 1350 1298 1367 Q1330 1384 1358 1384 Q1411 1384 1411 1351 Q1411 1334 1396.5 1322.5 Q1382 1311 1329 1286 Q1266 1256 1050 1130 L961 1078 Z" /><glyph glyph-name="L" unicode="l" d="M731 1365 L727 1156 L723 823 L724 580 L728 65 L800 64 L1228 70 L1306 71 Q1365 71 1365 36 Q1365 5 1333 2 Q1326 1 1287 0 L116 0 L119 380 L121 613 L123 877 L119 1279 L120 1365 L731 1365 Z" /><glyph glyph-name="M" unicode="m" d="M1502 1412 L1720 667 L1819 337 L1908 38 L1920 0 L1312 0 L1120 707 L707 86 L283 676 Q222 460 150 146 Q124 26 112.5 3.5 Q101 -19 66 -19 Q22 -19 22 11 Q22 20 50 112 L112 325 L220 693 L431 1412 L979 619 L1502 1412 Z" /><glyph glyph-name="N" unicode="n" d="M1342 701 L1342 868 L1340 1133 L1339 1254 L1338 1330 Q1338 1384 1375 1384 Q1397 1384 1405.5 1371.5 Q1414 1359 1414 1324 L1414 1310 Q1413 1289 1413 1241 L1409 904 L1406 595 L1409 270 L1413 -56 Q1207 73 810 300.5 Q413 528 167 658 L168 609 L178 93 L179 24 Q179 -19 139 -19 Q98 -19 98 34 L99 104 L100 217 L104 730 L96 1421 Q501 1170 1342 701 Z" /><glyph glyph-name="O" unicode="o" d="M780 1406 Q938 1406 1085 1339 Q1301 1240 1415 1034 Q1506 869 1506 675 Q1506 519 1437 373 Q1334 155 1116 42 Q956 -41 780 -41 Q594 -41 428 53 Q207 177 113 401 Q55 538 55 684 Q55 867 146 1033 Q258 1237 473 1338 Q616 1405 780 1406 ZM701 1339 L695 688 L700 147 L701 25 Q735 19 766 19 Q987 19 1161 141 Q1320 253 1391 429 Q1441 552 1441 684 Q1441 858 1357 1008 Q1254 1192 1067 1279 Q927 1345 772 1345 Q736 1345 701 1339 Z" /><glyph glyph-name="P" unicode="p" d="M725 245 L725 217 L726 25 L726 0 L116 0 L117 61 L122 764 L118 1098 L117 1325 L116 1365 L573 1365 Q853 1365 997.5 1341 Q1142 1317 1240 1255 Q1372 1172 1444 1024 Q1499 911 1499 787 Q1499 653 1437 531 Q1363 385 1227.5 306.5 Q1092 228 914 228 Q848 228 725 245 ZM726 1297 L726 1230 L722 562 L724 313 Q803 292 929 292 Q1042 292 1143 337 Q1244 382 1314 464 Q1433 603 1433 787 Q1433 962 1315 1104 Q1231 1205 1098 1251 Q965 1297 756 1297 L726 1297 Z" /><glyph glyph-name="Q" unicode="q" d="M1218 101 Q1309 20 1458 -70 Q1486 -86 1486 -103 Q1486 -116 1475 -127 Q1464 -138 1451 -138 Q1424 -138 1328.5 -74 Q1233 -10 1156 60 Q973 -41 780 -41 Q592 -41 422 54 Q228 162 130 362 Q55 513 55 682 Q55 962 241 1167 Q346 1284 491 1346 Q628 1406 779 1406 Q987 1406 1163 1297 Q1342 1185 1434 991 Q1504 843 1504 681 Q1504 513 1427 356.5 Q1350 200 1218 101 ZM1166 143 Q1251 200 1326 308 Q1441 473 1441 680 Q1441 855 1352 1013 Q1265 1168 1112.5 1256 Q960 1344 779 1344 Q739 1344 701 1337 L701 26 Q736 19 770 19 Q959 19 1105 105 Q928 281 928 315 Q928 326 938 336 Q948 346 958 346 Q975 346 1005 310 Q1092 207 1166 143 Z" /><glyph glyph-name="R" unicode="r" d="M949 226 Q1045 160 1156.5 113.5 Q1268 67 1396 41 Q1427 35 1427 11 Q1427 -22 1381 -22 Q1276 -22 1086 70 Q928 147 724 308 L724 267 L725 97 L725 0 L116 0 L116 45 L118 371 L121 761 L119 1365 L521 1365 Q791 1365 929 1350 Q1067 1335 1164 1294 Q1322 1228 1414 1077 Q1499 937 1499 783 Q1499 619 1404 474 Q1251 241 949 226 ZM854 288 L902 287 Q1108 287 1250 402 Q1340 474 1388 582 Q1433 681 1433 784 Q1433 959 1319 1097 Q1232 1204 1101 1248 Q970 1292 732 1295 L723 625 L723 444 L724 397 Q785 338 854 288 Z" /><glyph glyph-name="S" unicode="s" d="M103 232 Q121 232 145 205 Q220 123 328.5 73.5 Q437 24 543 24 Q660 24 660 95 Q660 140 619 196.5 Q578 253 423 420 Q228 631 163 733 Q77 868 77 990 Q77 1174 241 1291 Q402 1406 638 1406 Q803 1406 941 1339 Q993 1313 1030.5 1279 Q1068 1245 1068 1222 Q1068 1211 1057.5 1201.5 Q1047 1192 1036 1192 Q1019 1192 986 1223 Q932 1274 844 1307.5 Q756 1341 675 1341 Q625 1341 593.5 1319.5 Q562 1298 562 1264 Q562 1223 601 1164 Q640 1105 733 1007 Q1027 694 1093 585 Q1162 470 1162 363 Q1162 272 1113 191 Q1064 110 977 58 Q811 -41 572 -41 Q352 -41 185 73 Q68 153 68 198 Q68 211 78.5 221.5 Q89 232 103 232 Z" /><glyph glyph-name="T" unicode="t" d="M1019 1298 L1014 985 L1011 688 L1014 0 L404 0 L410 797 L407 1068 L404 1298 L272 1295 L83 1291 L55 1290 Q7 1290 7 1326 Q7 1358 35 1362 Q43 1364 84 1365 L1311 1365 Q1375 1364 1387 1359 Q1407 1351 1407 1325 Q1407 1291 1356 1291 L1269 1294 L1039 1298 L1019 1298 Z" /><glyph glyph-name="U" unicode="u" d="M728 1365 L723 847 L721 303 L724 26 Q775 22 813 22 Q1164 22 1283 185 Q1344 269 1363.5 423.5 Q1383 578 1383 985 L1380 1250 L1376 1332 Q1376 1384 1419 1384 Q1457 1384 1457 1334 Q1457 1305 1454 1255 L1446 856 Q1442 604 1437 513.5 Q1432 423 1417 344 Q1386 181 1274 84 Q1131 -41 784 -41 Q480 -41 325 41 Q203 104 152 254 Q129 323 125 396 Q121 469 120 841 L116 1365 L728 1365 Z" /><glyph glyph-name="V" unicode="v" d="M1135 566 L1314 901 Q1447 1147 1526 1311 Q1547 1355 1559.5 1369.5 Q1572 1384 1590 1384 Q1607 1384 1620 1372.5 Q1633 1361 1633 1345 Q1633 1328 1612 1291 Q1607 1282 1602 1274 Q1592 1258 1576 1229 L836 -105 L-18 1365 L683 1365 L1135 566 Z" /><glyph glyph-name="W" unicode="w" d="M1726 647 Q1888 1034 1992 1315 Q2009 1361 2019 1372.5 Q2029 1384 2053 1384 Q2073 1384 2087.5 1374 Q2102 1364 2102 1350 Q2102 1337 2024 1160 L1966 1030 L1469 -96 L1222 369 L1028 715 L875 435 L642 -2 L594 -96 L401 380 L231 793 Q105 1104 -12 1352 L-18 1365 L608 1365 L694 1145 Q826 815 903 650 L1088 990 L1156 1118 L1202 1204 L1279 1348 Q1297 1383 1313 1411 L1461 1122 Q1589 877 1726 647 Z" /><glyph glyph-name="X" unicode="x" d="M1064 801 L1085 769 Q1287 448 1365 331 Q1443 214 1597 0 L885 0 L539 563 Q377 371 164 74 Q124 19 104 0 Q84 -19 64 -19 Q28 -19 28 14 Q28 27 35.5 39.5 Q43 52 90 111 L125 154 L499 625 L20 1365 L722 1365 L1025 863 Q1132 994 1329 1266 Q1387 1347 1404.5 1365.5 Q1422 1384 1442 1384 Q1458 1384 1470 1373 Q1482 1362 1482 1347 Q1482 1328 1465.5 1305 Q1449 1282 1351 1161 L1064 801 Z" /><glyph glyph-name="Y" unicode="y" d="M1096 844 L1414 1309 Q1446 1360 1458 1372 Q1470 1384 1489 1384 Q1506 1384 1517.5 1375 Q1529 1366 1529 1353 Q1529 1340 1517 1322 Q1509 1309 1497 1294 L1465 1251 L652 108 L619 63 Q576 3 564.5 -8 Q553 -19 533 -19 Q501 -19 501 9 Q501 24 530 58 L758 368 L730 406 Q426 815 300.5 976 Q175 1137 -18 1365 L707 1365 L1096 844 Z" /><glyph glyph-name="Z" unicode="z" d="M1344 1365 L1322 1322 Q968 610 732 67 L960 67 L1199 70 L1264 72 Q1323 72 1323 36 Q1323 10 1309 5.5 Q1295 1 1212 0 L48 0 L67 39 Q504 916 665 1301 L212 1291 L167 1290 Q111 1290 111 1327 Q111 1353 135 1361 Q149 1365 204 1365 L1344 1365 Z" /><glyph glyph-name="bracketleft" unicode="[" d="M116 1407 L416 1407 L548 1408 Q624 1409 624 1370 Q624 1333 557 1333 L486 1334 L416 1334 L413 1013 L410 577 L413 142 L416 -180 L486 -179 L551 -178 Q624 -178 624 -215 Q624 -255 539 -253 L416 -252 L116 -252 L116 -195 L121 89 L127 577 L121 1066 L116 1350 L116 1407 Z" /><glyph glyph-name="backslash" unicode="\" d="M101 1407 Q136 1407 162 1343 Q169 1324 200 1259 L310 1027 L513 596 L713 175 L874 -165 Q892 -204 892 -215 Q892 -231 878.5 -241.5 Q865 -252 846 -252 Q829 -252 820 -239 Q811 -226 774 -148 L728 -48 L636 145 L439 562 L124 1223 L85 1307 Q61 1356 61 1371 Q61 1385 72.5 1396 Q84 1407 101 1407 Z" /><glyph glyph-name="bracketright" unicode="]" d="M624 -252 L324 -252 L193 -253 Q116 -254 116 -215 Q116 -178 183 -178 L254 -179 Q316 -179 324 -180 L327 142 L330 577 L327 1013 L324 1334 L254 1334 L183 1333 Q116 1333 116 1370 Q116 1410 201 1408 L324 1407 L624 1407 L624 1350 L619 1066 L613 578 L619 89 L624 -195 L624 -252 Z" /><glyph glyph-name="asciicircum" unicode="^" d="M1094 559 L927 559 L668 983 L374 559 L-70 559 L537 1434 L558 1434 L1094 559 Z" /><glyph glyph-name="underscore" unicode="_" d="M-3 -192 L1028 -192 L1028 -392 L-3 -392 L-3 -192 Z" /><glyph glyph-name="grave" unicode="`" d="M683 1204 L449 1204 L233 1478 L585 1478 L683 1204 Z" /><glyph glyph-name="a" unicode="a" d="M825 666 L825 788 Q824 915 821 944 Q818 973 803 996 Q767 1052 635 1052 Q431 1052 320 924 Q275 872 244 872 Q221 872 204 888 Q187 904 187 925 Q187 988 336 1055 Q478 1119 703 1119 Q1073 1119 1225 1007 Q1291 958 1311 897 Q1331 836 1331 682 L1331 285 Q1327 175 1337.5 119.5 Q1348 64 1385 0 L825 0 L825 105 Q733 42 642.5 10 Q552 -22 464 -22 Q315 -22 199 65 Q48 179 48 361 Q48 522 170 621 Q312 738 522 738 Q608 738 674 722.5 Q740 707 825 666 ZM826 594 Q700 657 631 657 Q573 657 555 611 Q545 586 545 466 L545 227 Q546 148 550 131 Q560 85 618 85 Q664 85 720.5 112.5 Q777 140 824 185 L826 594 Z" /><glyph glyph-name="b" unicode="b" d="M116 1365 L628 1365 L624 987 Q700 1053 781.5 1086 Q863 1119 951 1119 Q1147 1119 1304 976 Q1481 815 1481 557 Q1481 291 1299 118 Q1151 -22 960 -22 Q862 -22 785 13 Q708 48 627 130 L627 0 L116 0 L116 45 L119 530 L118 876 L116 1365 ZM624 905 L624 223 Q691 152 730 120 Q810 55 875 55 Q920 55 933 98 Q939 118 940 199 L940 871 L941 915 Q941 991 927.5 1018.5 Q914 1046 876 1046 Q828 1046 765 1011 Q702 976 624 905 Z" /><glyph glyph-name="c" unicode="c" d="M586 875 L586 207 L585 143 Q585 81 600.5 60.5 Q616 40 663 40 Q781 40 895 112.5 Q1009 185 1081 307 Q1103 344 1124 344 Q1139 344 1151.5 330.5 Q1164 317 1164 302 Q1164 266 1106 200.5 Q1048 135 971 83 Q814 -22 635 -22 Q390 -22 230 130 Q48 301 48 549 Q48 805 240 975 Q401 1119 637 1119 Q825 1119 966 1030 Q1026 992 1064 948.5 Q1102 905 1102 875 Q1102 860 1091 849.5 Q1080 839 1064 839 Q1043 839 1011 887 Q965 954 866 1003.5 Q767 1053 679 1053 Q620 1053 603 1020 Q586 987 586 875 Z" /><glyph glyph-name="d" unicode="d" d="M1412 1365 L1410 876 L1409 530 L1412 45 L1412 0 L901 0 L901 130 Q819 48 742.5 13 Q666 -22 569 -22 Q379 -22 231 118 Q48 291 48 557 Q48 815 225 976 Q382 1119 578 1119 Q665 1119 746.5 1086 Q828 1053 904 987 L900 1365 L1412 1365 ZM904 905 Q826 976 763.5 1011 Q701 1046 653 1046 Q615 1046 601.5 1018.5 Q588 991 588 915 L589 871 L589 199 Q590 118 596 98 Q608 55 654 55 Q704 55 760 92.5 Q816 130 904 223 L904 905 Z" /><glyph glyph-name="e" unicode="e" d="M515 514 L515 204 Q515 114 526 90 Q547 44 625 44 Q741 44 854.5 107.5 Q968 171 1051 283 Q1078 320 1090 330 Q1102 340 1116 340 Q1133 340 1144 327.5 Q1155 315 1155 296 Q1155 254 1088 183 Q1000 92 869.5 35 Q739 -22 615 -22 Q402 -22 239 121 Q144 205 93 328 Q48 436 48 544 Q48 648 88 752.5 Q128 857 198 933 Q279 1022 390 1071 Q499 1119 618 1119 Q803 1119 953 1010 Q1187 840 1185 517 L952 517 L652 516 L515 514 ZM771 580 L771 872 Q769 966 767 984.5 Q765 1003 753 1019 Q725 1058 639 1058 Q551 1058 529 1013 Q515 986 515 872 L515 580 L637 576 L771 580 Z" /><glyph glyph-name="f" unicode="f" d="M644 1033 L642 733 L640 361 L644 40 L644 0 L133 0 L133 34 L135 196 L137 547 L133 1004 L133 1033 L115 1033 L38 1030 Q-7 1030 -7 1065 Q-7 1100 34 1100 L82 1097 L140 1097 Q154 1181 175.5 1228.5 Q197 1276 242 1320 Q367 1444 599 1444 Q713 1444 800 1410 Q887 1376 887 1332 Q887 1315 873.5 1302.5 Q860 1290 842 1290 Q822 1290 803 1312 Q779 1342 766 1351 Q753 1360 735 1360 Q684 1360 663 1301.5 Q642 1243 641 1097 L734 1097 Q740 1097 760 1099 Q777 1100 792 1100 Q833 1100 833 1064 Q833 1030 784 1030 L711 1032 L644 1033 Z" /><glyph glyph-name="g" unicode="g" d="M893 1049 Q979 1007 1037 938 Q1114 845 1114 723 Q1114 636 1070 558 Q1026 480 947 427 Q801 328 595 328 Q500 328 420 345 Q340 362 274 396 Q227 364 227 331 Q227 292 280 285 Q395 270 438 276 L444 277 L743 277 L758 278 Q908 287 974 228 Q1025 181 1025 118 Q1025 65 989 22 Q929 -49 827 -49 Q808 -49 779 -47 Q795 -22 795 -8 Q795 23 739 23 Q691 23 538 2 Q431 -13 361 -13 Q251 -13 170 34 Q123 61 96 108 Q69 155 69 210 Q69 272 101.5 323.5 Q134 375 210 432 Q139 477 100 549.5 Q61 622 61 707 Q61 909 264 1029 Q416 1119 633 1119 Q681 1119 733 1114 Q804 1108 836 1108 Q915 1108 951 1178 Q972 1220 996 1220 Q1015 1220 1029 1207.5 Q1043 1195 1043 1177 Q1043 1141 1003 1106.5 Q963 1072 893 1049 ZM500 939 L500 516 Q500 440 512 422 Q532 393 595 393 Q653 393 672.5 420.5 Q692 448 692 529 L692 937 Q692 1005 672.5 1028 Q653 1051 596 1051 Q539 1051 519.5 1028 Q500 1005 500 939 Z" /><glyph glyph-name="h" unicode="h" d="M627 951 Q723 1016 784 1046 Q934 1119 1081 1119 Q1187 1119 1272 1081 Q1357 1043 1398 977 Q1447 898 1447 687 L1445 538 L1443 341 L1450 0 L937 0 L941 618 L936 934 Q926 986 862 986 Q815 986 756.5 957.5 Q698 929 627 871 L625 620 L629 185 L632 0 L117 0 L119 422 L119 903 L116 1319 L117 1365 L627 1365 L627 1337 L628 1166 L627 1060 L627 951 Z" /><glyph glyph-name="i" unicode="i" d="M372 1442 Q636 1442 636 1304 Q636 1237 566.5 1199.5 Q497 1162 371 1162 Q120 1162 120 1304 Q120 1440 372 1442 ZM631 1092 L631 1063 L629 907 L627 665 L624 297 L628 90 L630 0 L116 0 L121 368 L124 693 L122 864 L119 1054 L120 1092 L631 1092 Z" /><glyph glyph-name="j" unicode="j" d="M701 1092 L699 879 L701 731 L702 616 Q702 350 691 276.5 Q680 203 628 125 Q504 -58 260 -58 Q128 -58 45 -5 Q-20 37 -20 80 Q-20 98 -7.5 111.5 Q5 125 21 125 Q38 125 47 116 Q56 107 82 63 Q108 19 150 19 Q176 19 185.5 34.5 Q195 50 197 94 L201 407 L198 735 L196 902 L194 1050 L194 1092 L701 1092 ZM444 1442 Q706 1442 706 1304 Q706 1237 636.5 1199.5 Q567 1162 441 1162 Q190 1162 190 1304 Q190 1440 444 1442 Z" /><glyph glyph-name="k" unicode="k" d="M987 883 L1101 694 L1210 510 Q1371 244 1429.5 158.5 Q1488 73 1560 0 L965 0 L780 323 Q678 504 624 585 L624 539 L625 359 L627 47 L628 0 L116 0 L120 482 L121 760 L117 1318 L116 1365 L628 1365 L624 708 L624 654 Q903 905 1009 983 Q1147 1087 1250 1087 Q1327 1087 1327 1031 Q1327 1011 1313 997.5 Q1299 984 1278 984 Q1266 984 1250 989 Q1222 997 1207 997 Q1165 997 1118 972.5 Q1071 948 987 883 Z" /><glyph glyph-name="l" unicode="l" d="M626 1365 L627 1314 L625 962 L624 810 L622 533 L626 39 L626 0 L116 0 L116 47 L118 206 L119 494 L121 871 L120 1074 L117 1297 L118 1365 L626 1365 Z" /><glyph glyph-name="m" unicode="m" d="M1416 930 Q1546 1030 1658.5 1074.5 Q1771 1119 1896 1119 Q2125 1119 2215 972 Q2241 928 2251 870.5 Q2261 813 2261 700 L2257 436 L2257 374 L2262 41 L2263 0 L1750 0 L1754 316 L1759 634 L1758 763 Q1757 834 1758 846 Q1759 925 1741 955 Q1723 985 1676 985 Q1626 985 1566.5 956 Q1507 927 1438 868 Q1443 829 1443 756 L1441 506 L1439 225 Q1439 101 1444 0 L932 0 L934 218 L937 688 Q937 920 931 944 Q920 987 859 987 Q813 987 755.5 958.5 Q698 930 628 872 L624 449 L629 0 L116 0 L116 40 L118 222 L119 470 L120 710 L116 1092 L628 1092 L628 952 Q740 1036 851.5 1077.5 Q963 1119 1074 1119 Q1241 1119 1343 1035 Q1384 1002 1416 930 Z" /><glyph glyph-name="n" unicode="n" d="M628 1092 L628 953 Q745 1036 857 1077.5 Q969 1119 1075 1119 Q1217 1119 1315 1054 Q1389 1005 1414.5 932.5 Q1440 860 1440 696 L1438 233 L1441 0 L932 0 L936 278 L939 482 L938 790 Q937 897 935.5 917.5 Q934 938 926 954 Q910 986 857 986 Q808 986 751 958 Q694 930 628 874 L627 833 L625 552 L623 337 L626 43 L627 0 L116 0 L119 392 L122 651 L119 875 L116 1092 L628 1092 Z" /><glyph glyph-name="o" unicode="o" d="M616 1119 Q777 1119 921 1030 Q1054 948 1124 806 Q1186 681 1186 541 Q1186 445 1149.5 348 Q1113 251 1050 176 Q962 73 835 21 Q731 -22 618 -22 Q429 -22 278 90 Q160 176 99 311 Q48 425 48 552 Q48 800 228 964 Q397 1116 616 1119 ZM587 1054 L584 46 Q615 44 627 44 Q766 44 893 122 Q1015 198 1076 324 Q1124 424 1124 544 Q1124 785 946 935 Q802 1056 633 1056 Q619 1056 587 1054 Z" /><glyph glyph-name="p" unicode="p" d="M116 1092 L627 1092 L624 961 Q725 1048 809 1083.5 Q893 1119 994 1119 Q1201 1119 1330 965 Q1446 827 1446 614 Q1446 387 1313 241 Q1190 106 1006 106 Q909 106 813 146.5 Q717 187 622 268 L623 231 L624 100 L626 -9 L627 -46 L116 -46 L117 239 L119 504 L116 1057 L116 1092 ZM624 871 L624 349 Q697 281 755 246.5 Q813 212 856 212 Q896 212 903 251 Q905 264 906 386 L906 875 Q906 962 903 979 Q896 1021 861 1021 Q816 1021 752 980.5 Q688 940 624 871 Z" /><glyph glyph-name="q" unicode="q" d="M1378 1092 L1375 504 L1377 239 L1378 -46 L867 -46 L868 -9 L870 100 L872 268 Q777 187 681 146.5 Q585 106 488 106 Q304 106 181 241 Q48 387 48 614 Q48 827 164 965 Q293 1119 500 1119 Q602 1119 685 1083.5 Q768 1048 870 961 L867 1092 L1378 1092 ZM870 871 Q809 936 761 968 Q681 1021 633 1021 Q596 1021 590 975 Q588 958 588 875 L588 386 Q589 259 592 245 Q600 212 638 212 Q681 212 739 246.5 Q797 281 870 349 L870 871 Z" /><glyph glyph-name="r" unicode="r" d="M627 782 L625 398 L629 0 L116 0 L117 55 L118 259 L121 626 L117 1034 L116 1092 L628 1092 L628 886 Q743 1008 788 1040 Q892 1113 984 1113 Q1040 1113 1076.5 1089 Q1113 1065 1113 1028 Q1113 999 1091 980 Q1069 961 1036 961 Q1015 961 989 973 Q945 994 916 994 Q844 994 777 945 Q710 896 627 782 Z" /><glyph glyph-name="s" unicode="s" d="M98 185 Q118 185 149 155 Q199 108 291 74.5 Q383 41 463 41 Q500 41 518.5 53.5 Q537 66 537 90 Q537 114 511.5 147.5 Q486 181 398 276 Q183 506 119.5 599.5 Q56 693 56 779 Q56 854 99.5 922.5 Q143 991 221 1039 Q350 1119 517 1119 Q640 1119 777 1067 Q884 1026 884 978 Q884 963 871.5 951 Q859 939 843 939 Q824 939 772 976 Q666 1052 541 1052 Q497 1052 474.5 1038 Q452 1024 452 995 Q452 961 493.5 909 Q535 857 662 733 Q786 612 819.5 574.5 Q853 537 884 488 Q937 404 937 306 Q937 152 788 57 Q666 -22 488 -22 Q290 -22 137 66 Q92 93 75.5 110 Q59 127 59 147 Q59 184 98 185 Z" /><glyph glyph-name="t" unicode="t" d="M667 1444 L656 1121 L655 1090 Q742 1090 813 1097 Q825 1098 834 1098 Q878 1098 878 1058 Q878 1021 832 1021 Q818 1021 797 1023 Q718 1029 684 1029 L655 1029 L654 835 L658 446 L661 238 Q661 165 672 136 Q683 107 710 107 Q746 107 787 149 Q827 191 850 252 Q871 310 900 310 Q934 310 934 272 Q934 234 900 177.5 Q866 121 818 79 Q700 -24 512 -24 Q335 -24 238 83 Q188 137 169 203.5 Q150 270 150 388 L150 463 L151 674 L151 1032 Q137 1033 131 1033 Q121 1033 91 1031 Q66 1029 49 1029 Q0 1029 0 1066 Q0 1102 47 1102 Q69 1102 78 1101 L151 1096 L151 1209 Q447 1316 667 1444 Z" /><glyph glyph-name="u" unicode="u" d="M1430 1092 L1427 306 L1430 0 L919 0 L919 141 Q792 54 687.5 16 Q583 -22 469 -22 Q260 -22 166 102 Q131 148 117.5 206.5 Q104 265 104 373 L106 607 L107 763 L102 1092 L613 1092 L608 590 L609 400 L610 272 Q610 157 624 134 Q641 108 688 108 Q736 108 787.5 133 Q839 158 921 222 L922 353 L924 710 L918 1061 L918 1092 L1430 1092 Z" /><glyph glyph-name="v" unicode="v" d="M925 507 Q1161 921 1210 1044 Q1235 1102 1247.5 1118 Q1260 1134 1279 1134 Q1299 1134 1315 1122.5 Q1331 1111 1331 1097 Q1331 1081 1309 1044 L726 -3 L695 -60 L429 359 L341 498 L249 639 L170 764 L-55 1092 L567 1092 L809 691 L925 507 Z" /><glyph glyph-name="w" unicode="w" d="M1487 545 Q1595 770 1700 1045 Q1725 1111 1734.5 1125 Q1744 1139 1762 1139 Q1781 1139 1795 1127.5 Q1809 1116 1809 1101 Q1809 1087 1798.5 1061 Q1788 1035 1724 895 L1597 618 L1481 368 L1386 159 L1286 -70 L908 581 Q870 518 807 402 L553 -70 L366 289 L223 561 L100 797 L-55 1092 L513 1092 L800 532 Q883 671 915 730 Q947 789 1146 1168 L1487 545 Z" /><glyph glyph-name="x" unicode="x" d="M960 653 L1039 544 Q1181 347 1276.5 228.5 Q1372 110 1476 0 L820 0 L498 445 Q313 259 148 52 Q90 -22 63 -22 Q48 -22 30.5 -5 Q13 12 13 26 Q13 51 85 117 Q259 282 456 500 L368 623 Q125 963 -4 1092 L647 1092 L920 706 Q1132 941 1228 1062 Q1273 1120 1297 1120 Q1313 1120 1330.5 1103 Q1348 1086 1348 1071 Q1348 1050 1292 1000 Q1253 964 1134 839 L960 653 Z" /><glyph glyph-name="y" unicode="y" d="M877 594 Q1072 893 1162 1048 Q1194 1101 1202 1110 Q1210 1119 1225 1119 Q1245 1119 1261 1104 Q1277 1089 1277 1070 Q1277 1055 1260 1034 Q1116 838 895 502 L719 233 Q628 95 569 34 Q525 -9 464.5 -36 Q404 -63 348 -63 Q293 -63 257.5 -41.5 Q222 -20 222 13 Q222 34 238 49 Q254 64 277 64 Q294 64 343 41 Q375 26 398 26 Q443 26 483.5 53.5 Q524 81 572 144 L454 329 Q73 921 -55 1092 L581 1092 Q641 961 719 830 Q797 699 877 594 Z" /><glyph glyph-name="z" unicode="z" d="M1330 1092 L762 227 L679 95 L663 68 L790 68 Q999 68 1207 87 Q1235 89 1251 89 Q1301 89 1301 41 Q1301 -6 1235 -6 L1175 -5 L652 0 L3 0 Q206 269 524 778 L657 990 L682 1030 L576 1031 Q356 1031 214 1019 Q184 1016 166 1016 Q119 1016 119 1057 Q119 1084 131.5 1093.5 Q144 1103 177 1103 L212 1102 L847 1092 L1330 1092 Z" /><glyph glyph-name="braceleft" unicode="{" d="M468 584 Q640 570 714.5 514.5 Q789 459 789 344 L789 -64 Q789 -127 803.5 -145.5 Q818 -164 868 -164 L914 -163 L950 -163 Q998 -163 1013 -166 Q1049 -172 1049 -204 Q1049 -230 1017 -235.5 Q985 -241 829 -241 Q596 -241 503 -157 Q464 -122 450 -74.5 Q436 -27 436 69 L436 408 Q436 491 417.5 518.5 Q399 546 343 546 L325 546 Q286 546 286 584 Q286 621 325 621 L343 621 Q399 621 417.5 648.5 Q436 676 436 758 L436 1097 Q436 1199 452 1248 Q468 1297 513 1332 Q610 1407 829 1407 Q986 1407 1017.5 1401.5 Q1049 1396 1049 1370 Q1049 1338 1013 1332 Q998 1329 951 1329 L914 1329 L868 1330 Q818 1330 803.5 1311.5 Q789 1293 789 1231 L789 823 Q789 707 714.5 652 Q640 597 468 584 Z" /><glyph glyph-name="bar" unicode="|" d="M378 1365 L648 1365 L648 -341 L378 -341 L378 1365 Z" /><glyph glyph-name="braceright" unicode="}" d="M856 584 Q684 597 609.5 652 Q535 707 535 823 L535 1231 Q535 1293 520.5 1311.5 Q506 1330 456 1330 L410 1329 L374 1329 Q326 1329 311 1332 Q275 1338 275 1370 Q275 1396 306.5 1401.5 Q338 1407 495 1407 Q728 1407 821 1323 Q860 1288 874 1240.5 Q888 1193 888 1097 L888 758 Q888 676 906.5 648.5 Q925 621 981 621 L999 621 Q1038 621 1038 584 Q1038 546 999 546 L981 546 Q925 546 906.5 518.5 Q888 491 888 408 L888 69 Q888 -32 871.5 -81 Q855 -130 811 -166 Q715 -241 495 -241 Q338 -241 306.5 -235.5 Q275 -230 275 -204 Q275 -172 311 -166 Q326 -163 373 -163 L410 -163 L456 -164 Q506 -164 520.5 -145.5 Q535 -127 535 -64 L535 344 Q535 459 609.5 514.5 Q684 570 856 584 Z" /><glyph glyph-name="asciitilde" unicode="~" d="M1084 821 L1156 785 Q1103 697 1014 610 Q972 569 929 552.5 Q886 536 819 536 Q758 536 594 590 Q519 614 451 614 Q383 614 338 583 Q328 577 304 557 Q297 550 282 538 L213 573 Q301 709 362 758 Q445 824 534 824 Q591 824 723 785 Q860 744 920 744 Q1005 744 1084 821 Z" /></font>
</defs>
</svg>
